<?xml version="1.0" encoding="iso-8859-1"?>
<!-- Generator: Adobe Illustrator 19.0.0, SVG Export Plug-In . SVG Version: 6.00 Build 0)  -->
<svg version="1.1" id="Capa_1" xmlns="http://www.w3.org/2000/svg" xmlns:xlink="http://www.w3.org/1999/xlink" x="0px" y="0px"
	 viewBox="0 0 468.293 468.293" style="enable-background:new 0 0 468.293 468.293;" xml:space="preserve">
<path style="fill:#E1E6E9;" d="M464.209,226.503L258.216,340.937l-207.287-44.27c-24.013-5.128-46.846,12.187-46.846,35.529
	c0,17.404,12.986,32.377,30.997,35.735l221.992,41.391L464.209,301.74v0c-12.767-17.005-15.437-39.551-6.994-59.067L464.209,226.503
	z"/>
<path style="fill:#3A556A;" d="M243.399,197.212L40.494,288.421c-8.308,1.03-16.258,4.166-23.014,9.288
	C6.374,306.138,0,318.705,0,332.195c0,21.047,15.805,39.275,37.587,43.333l224.898,41.932l202.571-105.21
	c1.989-1.033,3.237-3.088,3.237-5.329v-4.128c0-4.503-4.774-7.403-8.77-5.328L259.827,401.178L40.734,360.335
	c-14.135-2.637-24.402-14.473-24.402-28.14c0-8.756,4.136-16.918,11.35-22.393c5.434-4.119,12.053-6.291,18.841-6.291
	c2.228,0,4.471,0.232,6.695,0.706l210.432,44.947l202.59-112.548c1.267-0.704,2.053-2.04,2.053-3.489v-13.083
	c0-2.073-1.587-3.801-3.653-3.977L243.399,197.212z"/>
<path style="fill:#E1E6E9;" d="M464.209,154.269L258.216,268.703l-207.287-44.27c-24.013-5.128-46.846,12.187-46.846,35.529
	c0,17.404,12.986,32.377,30.997,35.735l221.992,41.391l207.137-107.581v0c-12.767-17.005-15.437-39.551-6.994-59.067
	L464.209,154.269z"/>
<path style="fill:#3A556A;" d="M243.399,124.978L40.494,216.187c-8.308,1.03-16.258,4.166-23.014,9.288
	C6.374,233.904,0,246.472,0,259.962c0,21.047,15.805,39.275,37.587,43.333l224.898,41.932l202.571-105.21
	c1.989-1.033,3.237-3.088,3.237-5.329v-4.128c0-4.503-4.774-7.403-8.77-5.328L259.827,328.944L40.734,288.101
	c-14.135-2.637-24.402-14.473-24.402-28.14c0-8.756,4.136-16.918,11.35-22.393c5.434-4.119,12.053-6.291,18.841-6.291
	c2.228,0,4.471,0.232,6.695,0.706L263.65,276.93l202.59-112.547c1.267-0.704,2.053-2.04,2.053-3.489V147.81
	c0-2.073-1.587-3.801-3.653-3.977L243.399,124.978z"/>
<path style="fill:#E1E6E9;" d="M464.209,80.122L258.216,194.557l-207.287-44.27c-24.013-5.128-46.846,12.187-46.846,35.529
	c0,17.404,12.986,32.377,30.997,35.735l221.992,41.391l207.137-107.581v0c-12.767-17.005-15.437-39.551-6.994-59.067L464.209,80.122
	z"/>
<path style="fill:#3A556A;" d="M243.399,50.832L40.494,142.041c-8.308,1.03-16.258,4.166-23.014,9.288
	C6.374,159.758,0,172.325,0,185.815c0,21.047,15.805,39.275,37.587,43.333l224.898,41.932l202.571-105.21
	c1.989-1.033,3.237-3.088,3.237-5.329v-4.128c0-4.503-4.774-7.403-8.77-5.328L259.827,254.798L40.734,213.955
	c-14.135-2.637-24.402-14.473-24.402-28.14c0-8.756,4.136-16.918,11.35-22.393c5.434-4.119,12.053-6.291,18.841-6.291
	c2.228,0,4.471,0.232,6.695,0.706l210.432,44.947L466.24,90.236c1.267-0.704,2.053-2.04,2.053-3.489V73.664
	c0-2.073-1.587-3.801-3.653-3.977L243.399,50.832z"/>
<g>
</g>
<g>
</g>
<g>
</g>
<g>
</g>
<g>
</g>
<g>
</g>
<g>
</g>
<g>
</g>
<g>
</g>
<g>
</g>
<g>
</g>
<g>
</g>
<g>
</g>
<g>
</g>
<g>
</g>
</svg>
